<svg width="34" height="34" viewBox="0 0 34 34" fill="none" xmlns="http://www.w3.org/2000/svg">
<path d="M16 0.00462318C37.6219 0.453894 37.0428 32 16 32C-5.04276 32 -5.62194 -0.444647 16 0.00462318Z" transform="translate(1 1)" stroke="black"/>
<path d="M0 0C6.20641 9.57762 4.52164 14.5817 0 22.8M23.4 22.8C18.5556 13.615 17.1027 8.53445 23.4 0M2.6 10.8H5.6M17.6 10.8H21M18.2 7.4H21.6M18.2 14.6H21.6M1.8 14.6H5.2M1.8 7.4H5.2M0.8 4.2H4.2M19 4.2H22.4M0.8 18.6H4.2M19 18H22.4" transform="translate(5.39999 5.39999)" stroke="black"/>
</svg>
