<svg width="33" height="31" viewBox="0 0 33 31" fill="none" xmlns="http://www.w3.org/2000/svg">
<path d="M28.5527 14.3648C27.7137 -4.45004 0.550162 -5.12355 0 14.3648C0 34.2109 27.8562 33.5266 28.5527 14.3648Z" transform="translate(1 1.00673)" stroke="black" stroke-width="0.75"/>
<path d="M19.4993 0L0 21.8989" transform="translate(5.87485 4.4217)" stroke="black" stroke-width="0.75"/>
<path d="M0 0C1.80538 9.68757 9.00141 16.2724 18.1065 17.7929" transform="translate(1.69641 11.2651)" stroke="black" stroke-width="0.75"/>
<path d="M12.5353 0C11.4119 1.01148 10.4461 2.05302 9.74967 4.10604C9.05327 6.15907 7.9418 9.42519 7.66046 13.6868C6.89839 17.4311 5.33102 18.5594 4.17843 19.8459C2.13924 20.4768 1.26636 20.2333 0 19.1615" transform="translate(1.69641 1)" stroke="black" stroke-width="0.75"/>
<path d="M9.43326 8.51142e-06C8.32678 1.02703 7.51397 2.65742 6.82806 4.74198C5.87925 6.60201 5.35659 10.5305 5.31117 14.2721C5.26574 18.0137 4.81797 20.0782 3.09309 21.2552C1.36822 22.4322 0 21.5613 0 21.5613" transform="matrix(-0.365449 -0.930831 -0.935057 0.354499 33 22.0989)" stroke="black" stroke-width="0.75"/>
</svg>
