<svg width="34" height="34" viewBox="0 0 34 34" fill="none" xmlns="http://www.w3.org/2000/svg">
<path d="M3.0847 26.0042C1.08548 23.3503 -0.114144 19.8154 0.00859767 15.3995C0.201277 8.46734 4.1629 3.79028 9.23689 1.54268C10.6981 0.895423 12.2515 0.449642 13.8338 0.2095M3.0847 26.0042C5.27417 28.9107 8.42267 30.7605 11.8435 31.5536M3.0847 26.0042C8.88448 22.8228 12.6092 26.1677 11.8435 31.5536M11.8435 31.5536C20.9555 33.6661 32 28.2814 32 15.3994C32 14.6203 31.9576 13.8716 31.8758 13.1532M31.8758 13.1532C25.8478 18.571 19.6956 18.571 16.0043 15.8621C12.313 13.1532 9.76833 8.36312 13.8338 0.2095M31.8758 13.1532C30.7331 3.11406 21.9084 -1.016 13.8338 0.2095" transform="translate(1 1)" stroke="black" stroke-width="0.75"/>
</svg>
