<svg width="142" height="159" viewBox="0 0 142 159" fill="none" xmlns="http://www.w3.org/2000/svg">
<path d="M17.4798 17.4433C13.0234 18.3402 11.7294 18.9955 8.85419 20.5478C8.35229 20.8187 7.4739 20.3346 6.86369 20.1043C6.25584 19.8748 5.91636 19.7026 5.31551 19.2173C4.1967 18.3135 3.18908 17.3731 2.66147 16.778C0.892128 14.7822 0.0648058 13.4287 0.0074519 11.456C-0.0544643 9.32633 0.215999 6.68015 2.88261 4.35993C4.21907 3.19708 5.97898 2.09127 8.85419 1.92064C36.8805 0.25744 54.415 -0.29685 79.4071 0.146646C85.1851 0.249179 91.6248 0.460072 97.9853 2.58589C99.3123 3.02941 102.593 5.16629 103.736 6.57743C105.101 8.26279 105.063 10.3472 105.063 11.6777C105.063 14.0311 104.396 16.0549 101.966 18.2733C101.345 18.8404 100.235 19.9473 99.3123 20.5478L99.2773 20.5706C98.7126 20.9383 98.6312 20.9913 97.7642 20.9913C96.5381 20.9913 95.7127 19.9325 94.6678 19.439C92.2263 18.2861 89.8211 17.4253 87.3692 16.9998C75.8684 15.004 65.1908 14.3985 54.1939 14.117C41.9971 13.8047 29.6441 14.9948 17.4798 17.4433Z" transform="translate(21.5613 24.8025)" fill="#C4C4C4"/>
<path d="M17.4798 17.4433C13.0234 18.3402 11.7294 18.9955 8.85419 20.5478C8.35229 20.8187 7.4739 20.3346 6.86369 20.1043C6.25584 19.8748 5.91636 19.7026 5.31551 19.2173C4.1967 18.3135 3.18908 17.3731 2.66147 16.778C0.892128 14.7822 0.0648058 13.4287 0.0074519 11.456C-0.0544643 9.32633 0.215999 6.68015 2.88261 4.35993C4.21907 3.19708 5.97898 2.09127 8.85419 1.92064C36.8805 0.25744 54.415 -0.29685 79.4071 0.146646C85.1851 0.249179 91.6248 0.460072 97.9853 2.58589C99.3123 3.02941 102.593 5.16629 103.736 6.57743C105.101 8.26279 105.063 10.3472 105.063 11.6777C105.063 14.0311 104.396 16.0549 101.966 18.2733C101.345 18.8404 100.235 19.9473 99.3123 20.5478L99.2773 20.5706C98.7126 20.9383 98.6312 20.9913 97.7642 20.9913C96.5381 20.9913 95.7127 19.9325 94.6678 19.439C92.2263 18.2861 89.8211 17.4253 87.3692 16.9998C75.8684 15.004 65.1908 14.3985 54.1939 14.117C41.9971 13.8047 29.6441 14.9948 17.4798 17.4433Z" transform="translate(21.5613 24.8025)" fill="url(#paint0_radial)"/>
<path d="M17.4798 17.4433C13.0234 18.3402 11.7294 18.9955 8.85419 20.5478C8.35229 20.8187 7.4739 20.3346 6.86369 20.1043C6.25584 19.8748 5.91636 19.7026 5.31551 19.2173C4.1967 18.3135 3.18908 17.3731 2.66147 16.778C0.892128 14.7822 0.0648058 13.4287 0.0074519 11.456C-0.0544643 9.32633 0.215999 6.68015 2.88261 4.35993C4.21907 3.19708 5.97898 2.09127 8.85419 1.92064C36.8805 0.25744 54.415 -0.29685 79.4071 0.146646C85.1851 0.249179 91.6248 0.460072 97.9853 2.58589C99.3123 3.02941 102.593 5.16629 103.736 6.57743C105.101 8.26279 105.063 10.3472 105.063 11.6777C105.063 14.0311 104.396 16.0549 101.966 18.2733C101.345 18.8404 100.235 19.9473 99.3123 20.5478L99.2773 20.5706C98.7126 20.9383 98.6312 20.9913 97.7642 20.9913C96.5381 20.9913 95.7127 19.9325 94.6678 19.439C92.2263 18.2861 89.8211 17.4253 87.3692 16.9998C75.8684 15.004 65.1908 14.3985 54.1939 14.117C41.9971 13.8047 29.6441 14.9948 17.4798 17.4433Z" transform="translate(21.5613 24.8025)" fill="url(#paint1_linear)"/>
<path d="M17.4798 17.4433C13.0234 18.3402 11.7294 18.9955 8.85419 20.5478C8.35229 20.8187 7.4739 20.3346 6.86369 20.1043C6.25584 19.8748 5.91636 19.7026 5.31551 19.2173C4.1967 18.3135 3.18908 17.3731 2.66147 16.778C0.892128 14.7822 0.0648058 13.4287 0.0074519 11.456C-0.0544643 9.32633 0.215999 6.68015 2.88261 4.35993C4.21907 3.19708 5.97898 2.09127 8.85419 1.92064C36.8805 0.25744 54.415 -0.29685 79.4071 0.146646C85.1851 0.249179 91.6248 0.460072 97.9853 2.58589C99.3123 3.02941 102.593 5.16629 103.736 6.57743C105.101 8.26279 105.063 10.3472 105.063 11.6777C105.063 14.0311 104.396 16.0549 101.966 18.2733C101.345 18.8404 100.235 19.9473 99.3123 20.5478L99.2773 20.5706C98.7126 20.9383 98.6312 20.9913 97.7642 20.9913C96.5381 20.9913 95.7127 19.9325 94.6678 19.439C92.2263 18.2861 89.8211 17.4253 87.3692 16.9998C75.8684 15.004 65.1908 14.3985 54.1939 14.117C41.9971 13.8047 29.6441 14.9948 17.4798 17.4433Z" transform="translate(21.5613 24.8025)" stroke="black"/>
<path d="M1.32701 23.0622L1.76935 5.54379C3.98104 3.54802 12.8278 2.21748 17.9147 1.55226C23.0016 0.887029 31.1848 0 44.8973 0C58.6098 0 72.7646 0.887002 72.7646 0.887002L80.7267 3.10452L88.2464 6.4308L88.4676 18.4054L89.1311 39.0283L90.0158 67.1907L90.9005 94.4661H62.812H26.5403H0L0.442338 73.6215L0.884676 50.1158L1.32701 23.0622Z" transform="translate(29.9731 63.5339)" fill="#C4C4C4"/>
<path d="M1.32701 23.0622L1.76935 5.54379C3.98104 3.54802 12.8278 2.21748 17.9147 1.55226C23.0016 0.887029 31.1848 0 44.8973 0C58.6098 0 72.7646 0.887002 72.7646 0.887002L80.7267 3.10452L88.2464 6.4308L88.4676 18.4054L89.1311 39.0283L90.0158 67.1907L90.9005 94.4661H62.812H26.5403H0L0.442338 73.6215L0.884676 50.1158L1.32701 23.0622Z" transform="translate(29.9731 63.5339)" fill="url(#paint2_linear)"/>
<path d="M1.32701 23.0622L1.76935 5.54379C3.98104 3.54802 12.8278 2.21748 17.9147 1.55226C23.0016 0.887029 31.1848 0 44.8973 0C58.6098 0 72.7646 0.887002 72.7646 0.887002L80.7267 3.10452L88.2464 6.4308L88.4676 18.4054L89.1311 39.0283L90.0158 67.1907L90.9005 94.4661H62.812H26.5403H0L0.442338 73.6215L0.884676 50.1158L1.32701 23.0622Z" transform="translate(29.9731 63.5339)" fill="url(#paint3_linear)"/>
<path d="M1.32701 23.0622L1.76935 5.54379C3.98104 3.54802 12.8278 2.21748 17.9147 1.55226C23.0016 0.887029 31.1848 0 44.8973 0C58.6098 0 72.7646 0.887002 72.7646 0.887002L80.7267 3.10452L88.2464 6.4308L88.4676 18.4054L89.1311 39.0283L90.0158 67.1907L90.9005 94.4661H62.812H26.5403H0L0.442338 73.6215L0.884676 50.1158L1.32701 23.0622Z" transform="translate(29.9731 63.5339)" stroke="black"/>
<path d="M1.32701 23.0622L1.76935 5.54379C3.98104 3.54802 12.8278 2.21748 17.9147 1.55226C23.0016 0.887029 31.1848 0 44.8973 0C58.6098 0 72.7646 0.887002 72.7646 0.887002L80.7267 3.10452L88.2464 6.4308L88.4676 18.4054L89.1311 39.0283L90.0158 67.1907L90.9005 94.4661H62.812H26.5403H0L0.442338 73.6215L0.884676 50.1158L1.32701 23.0622Z" transform="translate(29.9731 63.5339)" stroke="url(#paint4_linear)"/>
<path d="M0.221169 6.68746L0 18.8838C6.89183 17.1181 12.4144 15.8942 20.3475 14.8923C27.425 13.9984 33.8536 13.7746 44.6761 13.7835C54.2158 13.8825 61.0427 14.227 68.1201 14.8923C75.1975 16.001 80.234 17.1693 86.0348 19.3273L85.8136 7.13097C82.2749 4.6917 77.6303 2.69594 73.8705 2.25244C62.3257 -0.463452 52.8967 0.0796057 43.17 0.0145623C34.0826 -0.0462065 24.5498 0.0145582 14.8183 1.58718C9.95261 2.25244 3.5387 3.58294 0.221169 6.68746Z" transform="translate(31.9637 43.7631)" fill="#C4C4C4"/>
<path d="M0.221169 6.68746L0 18.8838C6.89183 17.1181 12.4144 15.8942 20.3475 14.8923C27.425 13.9984 33.8536 13.7746 44.6761 13.7835C54.2158 13.8825 61.0427 14.227 68.1201 14.8923C75.1975 16.001 80.234 17.1693 86.0348 19.3273L85.8136 7.13097C82.2749 4.6917 77.6303 2.69594 73.8705 2.25244C62.3257 -0.463452 52.8967 0.0796057 43.17 0.0145623C34.0826 -0.0462065 24.5498 0.0145582 14.8183 1.58718C9.95261 2.25244 3.5387 3.58294 0.221169 6.68746Z" transform="translate(31.9637 43.7631)" fill="url(#paint5_linear)"/>
<path d="M0.221169 6.68746L0 18.8838C6.89183 17.1181 12.4144 15.8942 20.3475 14.8923C27.425 13.9984 33.8536 13.7746 44.6761 13.7835C54.2158 13.8825 61.0427 14.227 68.1201 14.8923C75.1975 16.001 80.234 17.1693 86.0348 19.3273L85.8136 7.13097C82.2749 4.6917 77.6303 2.69594 73.8705 2.25244C62.3257 -0.463452 52.8967 0.0796057 43.17 0.0145623C34.0826 -0.0462065 24.5498 0.0145582 14.8183 1.58718C9.95261 2.25244 3.5387 3.58294 0.221169 6.68746Z" transform="translate(31.9637 43.7631)" stroke="black"/>
<path d="M122.085 5.76554C120.707 3.88151 119.382 2.81168 116.335 0.887005L134.471 5.32203L122.085 5.76554Z" transform="translate(4.09637 26.7232)" fill="#6E6E6E"/>
<path d="M0 1.33051L24.5498 0C21.2631 1.42953 19.8345 2.48297 18.1359 4.87853L0 1.33051Z" transform="translate(4.09637 26.7232)" fill="#6E6E6E"/>
<path d="M122.085 5.76554C120.707 3.88151 119.382 2.81168 116.335 0.887005L134.471 5.32203L122.085 5.76554Z" transform="translate(4.09637 26.7232)" stroke="black"/>
<path d="M0 1.33051L24.5498 0C21.2631 1.42953 19.8345 2.48297 18.1359 4.87853L0 1.33051Z" transform="translate(4.09637 26.7232)" stroke="black"/>
<path d="M40.2528 2.21752L31.406 0L0 1.77401V1.99577L40.2528 2.21752Z" transform="translate(69.5624 22.9534)" fill="#6E6E6E" stroke="black"/>
<path d="M96.872 0L0 5.10028V16.4096L96.872 11.5311V0Z" transform="translate(4.09637 11.4223)" fill="#EAE8E8" stroke="black"/>
<path d="M37.3776 9.97881L0 0V11.5311L37.3776 20.4011V9.97881Z" transform="translate(100.968 11.4223)" fill="#C4C4C4" stroke="black"/>
<path d="M1.10585 0L0 0.665254L36.2717 10.4223L38.9258 9.97882L1.10585 0Z" transform="translate(102.074 10.9788)" fill="#6E6E6E" stroke="black"/>
<path d="M37.8199 19.9576L0 10.2006V0L37.8199 11.0876V19.9576Z" transform="translate(103.18 1)" fill="#C4C4C4" stroke="black"/>
<path d="M0 15.5226V5.54379L102.18 0V10.2006L0 15.5226Z" transform="translate(1 1)" fill="#EAE8E8" stroke="black"/>
<path d="M21.4534 7.67019C29.1943 6.66873 40.9163 5.98729 46.8878 5.98729C52.8594 5.98729 66.793 6.45013 74.534 7.22983C81.0423 8.51196 86.8125 10.7928 88.7483 12.3286C89.0265 12.5493 89.5735 12.6398 89.5735 12.6398L90.237 12.8616H91.1216L92.0063 12.4181L92.891 11.7528L93.3333 10.6441V9.31356V8.6483L93.1122 7.98305L92.4487 7.31779L91.7851 6.65254C91.6103 6.47727 90.6594 5.75679 90.1043 5.54378C87.8502 4.67885 83.2168 3.15227 76.5245 1.77401C68.5624 0.438327 58.3886 0 46.2243 0C35.1659 0 21.2322 0.665254 9.2891 3.76977C6.34293 4.5356 5.11894 4.62445 3.31754 5.17981L1.99052 5.76553L0.884676 6.43079L0.221169 7.09604L0 7.7613V8.42655V9.75706L0.442338 10.8658L1.32701 11.5311L2.21169 11.9746H3.09637L3.75987 11.7528L3.98104 11.5311L4.20221 11.3093L4.86572 10.8658C7.74437 9.40604 16.0484 8.36945 21.4534 7.67019Z" transform="translate(28.2038 57.5466)" fill="#C4C4C4"/>
<path d="M21.4534 7.67019C29.1943 6.66873 40.9163 5.98729 46.8878 5.98729C52.8594 5.98729 66.793 6.45013 74.534 7.22983C81.0423 8.51196 86.8125 10.7928 88.7483 12.3286C89.0265 12.5493 89.5735 12.6398 89.5735 12.6398L90.237 12.8616H91.1216L92.0063 12.4181L92.891 11.7528L93.3333 10.6441V9.31356V8.6483L93.1122 7.98305L92.4487 7.31779L91.7851 6.65254C91.6103 6.47727 90.6594 5.75679 90.1043 5.54378C87.8502 4.67885 83.2168 3.15227 76.5245 1.77401C68.5624 0.438327 58.3886 0 46.2243 0C35.1659 0 21.2322 0.665254 9.2891 3.76977C6.34293 4.5356 5.11894 4.62445 3.31754 5.17981L1.99052 5.76553L0.884676 6.43079L0.221169 7.09604L0 7.7613V8.42655V9.75706L0.442338 10.8658L1.32701 11.5311L2.21169 11.9746H3.09637L3.75987 11.7528L3.98104 11.5311L4.20221 11.3093L4.86572 10.8658C7.74437 9.40604 16.0484 8.36945 21.4534 7.67019Z" transform="translate(28.2038 57.5466)" fill="url(#paint6_linear)"/>
<path d="M21.4534 7.67019C29.1943 6.66873 40.9163 5.98729 46.8878 5.98729C52.8594 5.98729 66.793 6.45013 74.534 7.22983C81.0423 8.51196 86.8125 10.7928 88.7483 12.3286C89.0265 12.5493 89.5735 12.6398 89.5735 12.6398L90.237 12.8616H91.1216L92.0063 12.4181L92.891 11.7528L93.3333 10.6441V9.31356V8.6483L93.1122 7.98305L92.4487 7.31779L91.7851 6.65254C91.6103 6.47727 90.6594 5.75679 90.1043 5.54378C87.8502 4.67885 83.2168 3.15227 76.5245 1.77401C68.5624 0.438327 58.3886 0 46.2243 0C35.1659 0 21.2322 0.665254 9.2891 3.76977C6.34293 4.5356 5.11894 4.62445 3.31754 5.17981L1.99052 5.76553L0.884676 6.43079L0.221169 7.09604L0 7.7613V8.42655V9.75706L0.442338 10.8658L1.32701 11.5311L2.21169 11.9746H3.09637L3.75987 11.7528L3.98104 11.5311L4.20221 11.3093L4.86572 10.8658C7.74437 9.40604 16.0484 8.36945 21.4534 7.67019Z" transform="translate(28.2038 57.5466)" stroke="black"/>
<path d="M3.31754 11.9746C5.08689 9.53531 11.722 7.59327 18.5782 7.09605C26.3811 6.04425 40.9163 5.10028 46.6667 5.10028C52.4171 5.10028 67.6202 5.83993 75.6398 6.98874C82.9384 8.42655 87.3618 10.8658 88.91 12.4181L89.7946 12.6398L90.6793 12.1963L91.564 11.5311C91.8638 11.1522 91.9661 10.9118 92.0063 10.4223C92.0322 9.59348 91.9464 9.15363 91.564 8.42655L90.6793 7.53954C90.1722 7.03117 87.7797 5.5509 84.4866 4.43503C82.0339 3.60394 79.1785 3.0329 75.6398 2.43927C67.6777 1.10358 57.9463 0.221751 46.0032 0C35.4687 0.579668 20.933 0.38975 9.06793 3.76977C6.5449 4.48852 5.02818 4.84177 3.09637 5.76554C2.36944 6.11314 1.10585 6.87429 0.663507 7.3178C0.221169 7.7613 0 8.64831 0 8.64831L0.221169 9.97881L0.663507 11.0876L1.54818 11.7528L2.43286 12.1963L3.31754 11.9746Z" transform="translate(28.8673 38.6977)" fill="#C4C4C4"/>
<path d="M3.31754 11.9746C5.08689 9.53531 11.722 7.59327 18.5782 7.09605C26.3811 6.04425 40.9163 5.10028 46.6667 5.10028C52.4171 5.10028 67.6202 5.83993 75.6398 6.98874C82.9384 8.42655 87.3618 10.8658 88.91 12.4181L89.7946 12.6398L90.6793 12.1963L91.564 11.5311C91.8638 11.1522 91.9661 10.9118 92.0063 10.4223C92.0322 9.59348 91.9464 9.15363 91.564 8.42655L90.6793 7.53954C90.1722 7.03117 87.7797 5.5509 84.4866 4.43503C82.0339 3.60394 79.1785 3.0329 75.6398 2.43927C67.6777 1.10358 57.9463 0.221751 46.0032 0C35.4687 0.579668 20.933 0.38975 9.06793 3.76977C6.5449 4.48852 5.02818 4.84177 3.09637 5.76554C2.36944 6.11314 1.10585 6.87429 0.663507 7.3178C0.221169 7.7613 0 8.64831 0 8.64831L0.221169 9.97881L0.663507 11.0876L1.54818 11.7528L2.43286 12.1963L3.31754 11.9746Z" transform="translate(28.8673 38.6977)" fill="url(#paint7_linear)"/>
<path d="M3.31754 11.9746C5.08689 9.53531 11.722 7.59327 18.5782 7.09605C26.3811 6.04425 40.9163 5.10028 46.6667 5.10028C52.4171 5.10028 67.6202 5.83993 75.6398 6.98874C82.9384 8.42655 87.3618 10.8658 88.91 12.4181L89.7946 12.6398L90.6793 12.1963L91.564 11.5311C91.8638 11.1522 91.9661 10.9118 92.0063 10.4223C92.0322 9.59348 91.9464 9.15363 91.564 8.42655L90.6793 7.53954C90.1722 7.03117 87.7797 5.5509 84.4866 4.43503C82.0339 3.60394 79.1785 3.0329 75.6398 2.43927C67.6777 1.10358 57.9463 0.221751 46.0032 0C35.4687 0.579668 20.933 0.38975 9.06793 3.76977C6.5449 4.48852 5.02818 4.84177 3.09637 5.76554C2.36944 6.11314 1.10585 6.87429 0.663507 7.3178C0.221169 7.7613 0 8.64831 0 8.64831L0.221169 9.97881L0.663507 11.0876L1.54818 11.7528L2.43286 12.1963L3.31754 11.9746Z" transform="translate(28.8673 38.6977)" stroke="black" stroke-linejoin="round"/>
<g filter="url(#filter0_i)">
<path d="M18.1727 35.396C16.9247 35.396 15.8087 35.288 14.8247 35.072C13.8407 34.856 12.7607 34.568 11.5847 34.208C10.8647 33.944 10.3247 33.8 9.96473 33.776L10.2527 27.26H12.5567L13.1687 31.94C13.5767 32.324 14.2367 32.672 15.1487 32.984C16.0847 33.272 17.1047 33.416 18.2087 33.416C20.0327 33.416 21.4127 33.008 22.3487 32.192C23.3087 31.376 23.7887 30.248 23.7887 28.808C23.7887 27.872 23.5247 27.068 22.9967 26.396C22.4927 25.724 21.8087 25.148 20.9447 24.668C20.1047 24.188 18.9407 23.624 17.4527 22.976C16.1087 22.376 14.9327 21.764 13.9247 21.14C12.9407 20.516 12.0767 19.688 11.3327 18.656C10.6127 17.6 10.2527 16.34 10.2527 14.876C10.2527 13.556 10.6007 12.38 11.2967 11.348C12.0167 10.292 13.0367 9.464 14.3567 8.864C15.7007 8.264 17.2607 7.964 19.0367 7.964C20.1407 7.964 21.1127 8.048 21.9527 8.216C22.8167 8.384 23.7887 8.612 24.8687 8.9C25.3487 9.068 25.7567 9.176 26.0927 9.224L25.8767 15.272H23.6807L22.9607 10.844C22.7207 10.604 22.2167 10.376 21.4487 10.16C20.7047 9.944 19.8887 9.836 19.0007 9.836C17.3447 9.836 16.0847 10.184 15.2207 10.88C14.3807 11.576 13.9607 12.584 13.9607 13.904C13.9607 14.864 14.2127 15.668 14.7167 16.316C15.2447 16.964 15.8927 17.516 16.6607 17.972C17.4287 18.428 18.6527 19.052 20.3327 19.844C21.8927 20.588 23.1647 21.26 24.1487 21.86C25.1327 22.46 25.9727 23.252 26.6687 24.236C27.3887 25.196 27.7487 26.348 27.7487 27.692C27.7487 28.964 27.3887 30.188 26.6687 31.364C25.9727 32.54 24.8927 33.512 23.4287 34.28C21.9887 35.024 20.2367 35.396 18.1727 35.396ZM33.7517 10.484L30.7997 10.052V8.252H35.6597C36.4757 8.252 37.5077 8.204 38.7557 8.108C39.9077 8.012 40.7597 7.964 41.3117 7.964C44.6237 7.964 46.9877 8.48 48.4037 9.512C49.8437 10.544 50.5637 12.056 50.5637 14.048C50.5637 15.752 50.0717 17.216 49.0877 18.44C48.1037 19.664 46.7597 20.432 45.0557 20.744C47.3597 20.696 49.1717 21.236 50.4917 22.364C51.8117 23.492 52.4717 25.028 52.4717 26.972C52.4717 29.396 51.6077 31.376 49.8797 32.912C48.1757 34.448 45.3437 35.216 41.3837 35.216C40.5197 35.216 39.6917 35.18 38.8997 35.108C37.0277 35.036 35.9117 35 35.5517 35H30.7637V33.236L33.7517 32.876V10.484ZM37.5677 20.06C37.9037 20.084 38.5877 20.096 39.6197 20.096H41.5997C43.2797 20.096 44.5517 19.628 45.4157 18.692C46.2797 17.756 46.7117 16.424 46.7117 14.696C46.7117 13.016 46.2797 11.792 45.4157 11.024C44.5517 10.232 43.0757 9.836 40.9877 9.836C40.1237 9.836 39.2357 9.884 38.3237 9.98L37.5677 10.052V20.06ZM37.5677 32.984C38.1197 33.176 39.3677 33.272 41.3117 33.272C43.7357 33.272 45.4877 32.78 46.5677 31.796C47.6717 30.788 48.2237 29.348 48.2237 27.476C48.2237 25.628 47.7437 24.284 46.7837 23.444C45.8477 22.604 44.3237 22.184 42.2117 22.184C39.7637 22.184 38.2157 22.208 37.5677 22.256V32.984Z" transform="translate(43 79)" fill="white" style="mix-blend-mode:overlay"/>
<path d="M18.1727 35.396C16.9247 35.396 15.8087 35.288 14.8247 35.072C13.8407 34.856 12.7607 34.568 11.5847 34.208C10.8647 33.944 10.3247 33.8 9.96473 33.776L10.2527 27.26H12.5567L13.1687 31.94C13.5767 32.324 14.2367 32.672 15.1487 32.984C16.0847 33.272 17.1047 33.416 18.2087 33.416C20.0327 33.416 21.4127 33.008 22.3487 32.192C23.3087 31.376 23.7887 30.248 23.7887 28.808C23.7887 27.872 23.5247 27.068 22.9967 26.396C22.4927 25.724 21.8087 25.148 20.9447 24.668C20.1047 24.188 18.9407 23.624 17.4527 22.976C16.1087 22.376 14.9327 21.764 13.9247 21.14C12.9407 20.516 12.0767 19.688 11.3327 18.656C10.6127 17.6 10.2527 16.34 10.2527 14.876C10.2527 13.556 10.6007 12.38 11.2967 11.348C12.0167 10.292 13.0367 9.464 14.3567 8.864C15.7007 8.264 17.2607 7.964 19.0367 7.964C20.1407 7.964 21.1127 8.048 21.9527 8.216C22.8167 8.384 23.7887 8.612 24.8687 8.9C25.3487 9.068 25.7567 9.176 26.0927 9.224L25.8767 15.272H23.6807L22.9607 10.844C22.7207 10.604 22.2167 10.376 21.4487 10.16C20.7047 9.944 19.8887 9.836 19.0007 9.836C17.3447 9.836 16.0847 10.184 15.2207 10.88C14.3807 11.576 13.9607 12.584 13.9607 13.904C13.9607 14.864 14.2127 15.668 14.7167 16.316C15.2447 16.964 15.8927 17.516 16.6607 17.972C17.4287 18.428 18.6527 19.052 20.3327 19.844C21.8927 20.588 23.1647 21.26 24.1487 21.86C25.1327 22.46 25.9727 23.252 26.6687 24.236C27.3887 25.196 27.7487 26.348 27.7487 27.692C27.7487 28.964 27.3887 30.188 26.6687 31.364C25.9727 32.54 24.8927 33.512 23.4287 34.28C21.9887 35.024 20.2367 35.396 18.1727 35.396ZM33.7517 10.484L30.7997 10.052V8.252H35.6597C36.4757 8.252 37.5077 8.204 38.7557 8.108C39.9077 8.012 40.7597 7.964 41.3117 7.964C44.6237 7.964 46.9877 8.48 48.4037 9.512C49.8437 10.544 50.5637 12.056 50.5637 14.048C50.5637 15.752 50.0717 17.216 49.0877 18.44C48.1037 19.664 46.7597 20.432 45.0557 20.744C47.3597 20.696 49.1717 21.236 50.4917 22.364C51.8117 23.492 52.4717 25.028 52.4717 26.972C52.4717 29.396 51.6077 31.376 49.8797 32.912C48.1757 34.448 45.3437 35.216 41.3837 35.216C40.5197 35.216 39.6917 35.18 38.8997 35.108C37.0277 35.036 35.9117 35 35.5517 35H30.7637V33.236L33.7517 32.876V10.484ZM37.5677 20.06C37.9037 20.084 38.5877 20.096 39.6197 20.096H41.5997C43.2797 20.096 44.5517 19.628 45.4157 18.692C46.2797 17.756 46.7117 16.424 46.7117 14.696C46.7117 13.016 46.2797 11.792 45.4157 11.024C44.5517 10.232 43.0757 9.836 40.9877 9.836C40.1237 9.836 39.2357 9.884 38.3237 9.98L37.5677 10.052V20.06ZM37.5677 32.984C38.1197 33.176 39.3677 33.272 41.3117 33.272C43.7357 33.272 45.4877 32.78 46.5677 31.796C47.6717 30.788 48.2237 29.348 48.2237 27.476C48.2237 25.628 47.7437 24.284 46.7837 23.444C45.8477 22.604 44.3237 22.184 42.2117 22.184C39.7637 22.184 38.2157 22.208 37.5677 22.256V32.984Z" transform="translate(43 79)" fill="url(#paint8_radial)"/>
</g>
<g filter="url(#filter1_i)">
<path d="M0.906172 2.022C0.836839 2.022 0.774839 2.016 0.720172 2.004C0.665505 1.992 0.605505 1.976 0.540172 1.956C0.500172 1.94133 0.470172 1.93333 0.450172 1.932L0.466172 1.57H0.594172L0.628172 1.83C0.650839 1.85133 0.687505 1.87067 0.738172 1.888C0.790172 1.904 0.846839 1.912 0.908172 1.912C1.00951 1.912 1.08617 1.88933 1.13817 1.844C1.19151 1.79867 1.21817 1.736 1.21817 1.656C1.21817 1.604 1.20351 1.55933 1.17417 1.522C1.14617 1.48467 1.10817 1.45267 1.06017 1.426C1.01351 1.39933 0.948839 1.368 0.866172 1.332C0.791505 1.29867 0.726172 1.26467 0.670172 1.23C0.615505 1.19533 0.567505 1.14933 0.526172 1.092C0.486172 1.03333 0.466172 0.963333 0.466172 0.882C0.466172 0.808667 0.485505 0.743333 0.524172 0.686C0.564172 0.627333 0.620839 0.581333 0.694172 0.548C0.768839 0.514667 0.855505 0.498 0.954172 0.498C1.01551 0.498 1.06951 0.502667 1.11617 0.512C1.16417 0.521333 1.21817 0.534 1.27817 0.55C1.30484 0.559333 1.32751 0.565333 1.34617 0.568L1.33417 0.904H1.21217L1.17217 0.658C1.15884 0.644667 1.13084 0.632 1.08817 0.62C1.04684 0.608 1.00151 0.602 0.952172 0.602C0.860172 0.602 0.790172 0.621333 0.742172 0.66C0.695505 0.698667 0.672172 0.754667 0.672172 0.828C0.672172 0.881333 0.686172 0.926 0.714172 0.962C0.743505 0.998 0.779505 1.02867 0.822172 1.054C0.864839 1.07933 0.932839 1.114 1.02617 1.158C1.11284 1.19933 1.18351 1.23667 1.23817 1.27C1.29284 1.30333 1.33951 1.34733 1.37817 1.402C1.41817 1.45533 1.43817 1.51933 1.43817 1.594C1.43817 1.66467 1.41817 1.73267 1.37817 1.798C1.33951 1.86333 1.27951 1.91733 1.19817 1.96C1.11817 2.00133 1.02084 2.022 0.906172 2.022ZM1.77567 0.638L1.61967 0.614V0.514H1.88567C1.93367 0.514 1.98101 0.512 2.02767 0.508C2.09967 0.502667 2.16767 0.5 2.23167 0.5C2.42501 0.501333 2.56167 0.537333 2.64167 0.608C2.72167 0.678667 2.76167 0.785333 2.76167 0.928C2.76167 1.03467 2.73701 1.12733 2.68767 1.206C2.63834 1.28467 2.56967 1.34467 2.48167 1.386C2.39501 1.42733 2.29501 1.448 2.18167 1.448C2.14301 1.448 2.10367 1.44733 2.06367 1.446C2.02367 1.44333 1.99901 1.44133 1.98967 1.44V1.88L2.26367 1.902V2H1.60967V1.902L1.77567 1.882V0.638ZM1.98967 1.33C2.02701 1.33667 2.09101 1.34 2.18167 1.34C2.28701 1.34 2.37234 1.308 2.43767 1.244C2.50434 1.18 2.53767 1.07533 2.53767 0.93C2.53767 0.815333 2.50901 0.733333 2.45167 0.684C2.39434 0.633333 2.30501 0.608 2.18367 0.608C2.14101 0.608 2.09567 0.610667 2.04767 0.616C2.01834 0.618667 1.99901 0.62 1.98967 0.62V1.33ZM2.9045 1.902L3.0705 1.882V0.638L2.9145 0.612V0.514H3.1765C3.21383 0.514 3.2645 0.511333 3.3285 0.506C3.39517 0.500667 3.44717 0.498 3.4845 0.498C3.6805 0.498 3.81983 0.53 3.9025 0.594C3.9865 0.656667 4.0285 0.756 4.0285 0.892C4.0285 0.986667 4.00183 1.07333 3.9485 1.152C3.8965 1.23067 3.8245 1.284 3.7325 1.312C3.77517 1.33467 3.8145 1.374 3.8505 1.43C3.88783 1.48467 3.93317 1.56133 3.9865 1.66C4.02783 1.73467 4.05917 1.78933 4.0805 1.824C4.10317 1.85867 4.1245 1.878 4.1445 1.882L4.2225 1.902V2H3.9465C3.92517 2 3.90117 1.97733 3.8745 1.932C3.84783 1.88533 3.8125 1.814 3.7685 1.718C3.7205 1.61267 3.6785 1.52933 3.6425 1.468C3.60783 1.40533 3.57317 1.36533 3.5385 1.348C3.39583 1.348 3.31117 1.34733 3.2845 1.346V1.882L3.4825 1.902V2H2.9045V1.902ZM3.5225 1.24C3.60783 1.24 3.67517 1.212 3.7245 1.156C3.77383 1.1 3.7985 1.01667 3.7985 0.906C3.7985 0.808667 3.77317 0.734667 3.7225 0.684C3.67317 0.632 3.58717 0.606 3.4645 0.606C3.42183 0.606 3.37917 0.608667 3.3365 0.614C3.30983 0.616667 3.2925 0.618 3.2845 0.618V1.238C3.3045 1.23933 3.34583 1.24 3.4085 1.24H3.5225ZM5.8387 2.396C5.7787 2.396 5.72204 2.386 5.6687 2.366C5.61537 2.346 5.5667 2.32133 5.5227 2.292C5.48004 2.264 5.4287 2.22667 5.3687 2.18C5.30337 2.12933 5.24804 2.09 5.2027 2.062C5.1587 2.034 5.11337 2.01533 5.0667 2.006C5.01737 2.01667 4.96937 2.022 4.9227 2.022C4.78804 2.022 4.67337 1.99067 4.5787 1.928C4.48404 1.86533 4.4127 1.77733 4.3647 1.664C4.3167 1.54933 4.2927 1.41667 4.2927 1.266C4.2927 1.11267 4.32137 0.978 4.3787 0.862C4.43737 0.746 4.51737 0.656667 4.6187 0.594C4.72004 0.53 4.8347 0.498 4.9627 0.498C5.1707 0.498 5.32937 0.564 5.4387 0.696C5.54804 0.826667 5.6027 1.008 5.6027 1.24C5.6027 1.412 5.5667 1.56067 5.4947 1.686C5.42404 1.81133 5.32804 1.90267 5.2067 1.96C5.2667 1.96533 5.3247 1.98 5.3807 2.004C5.4367 2.028 5.5027 2.062 5.5787 2.106C5.6627 2.15133 5.7307 2.18467 5.7827 2.206C5.8347 2.22733 5.88804 2.238 5.9427 2.238C5.96537 2.238 5.98604 2.23667 6.0047 2.234L6.0287 2.32C6.0047 2.34533 5.97604 2.364 5.9427 2.376C5.90937 2.38933 5.8747 2.396 5.8387 2.396ZM4.9447 1.916C5.07404 1.916 5.17604 1.85867 5.2507 1.744C5.32537 1.628 5.3627 1.46067 5.3627 1.242C5.3627 1.04067 5.3267 0.884 5.2547 0.772C5.1827 0.658667 5.08137 0.602 4.9507 0.602C4.82137 0.602 4.7187 0.658 4.6427 0.77C4.56804 0.882 4.5307 1.04733 4.5307 1.266C4.5307 1.466 4.5667 1.62467 4.6387 1.742C4.71204 1.858 4.81404 1.916 4.9447 1.916Z" transform="translate(131.685 27) rotate(13.1909)" fill="white" style="mix-blend-mode:overlay"/>
<path d="M0.906172 2.022C0.836839 2.022 0.774839 2.016 0.720172 2.004C0.665505 1.992 0.605505 1.976 0.540172 1.956C0.500172 1.94133 0.470172 1.93333 0.450172 1.932L0.466172 1.57H0.594172L0.628172 1.83C0.650839 1.85133 0.687505 1.87067 0.738172 1.888C0.790172 1.904 0.846839 1.912 0.908172 1.912C1.00951 1.912 1.08617 1.88933 1.13817 1.844C1.19151 1.79867 1.21817 1.736 1.21817 1.656C1.21817 1.604 1.20351 1.55933 1.17417 1.522C1.14617 1.48467 1.10817 1.45267 1.06017 1.426C1.01351 1.39933 0.948839 1.368 0.866172 1.332C0.791505 1.29867 0.726172 1.26467 0.670172 1.23C0.615505 1.19533 0.567505 1.14933 0.526172 1.092C0.486172 1.03333 0.466172 0.963333 0.466172 0.882C0.466172 0.808667 0.485505 0.743333 0.524172 0.686C0.564172 0.627333 0.620839 0.581333 0.694172 0.548C0.768839 0.514667 0.855505 0.498 0.954172 0.498C1.01551 0.498 1.06951 0.502667 1.11617 0.512C1.16417 0.521333 1.21817 0.534 1.27817 0.55C1.30484 0.559333 1.32751 0.565333 1.34617 0.568L1.33417 0.904H1.21217L1.17217 0.658C1.15884 0.644667 1.13084 0.632 1.08817 0.62C1.04684 0.608 1.00151 0.602 0.952172 0.602C0.860172 0.602 0.790172 0.621333 0.742172 0.66C0.695505 0.698667 0.672172 0.754667 0.672172 0.828C0.672172 0.881333 0.686172 0.926 0.714172 0.962C0.743505 0.998 0.779505 1.02867 0.822172 1.054C0.864839 1.07933 0.932839 1.114 1.02617 1.158C1.11284 1.19933 1.18351 1.23667 1.23817 1.27C1.29284 1.30333 1.33951 1.34733 1.37817 1.402C1.41817 1.45533 1.43817 1.51933 1.43817 1.594C1.43817 1.66467 1.41817 1.73267 1.37817 1.798C1.33951 1.86333 1.27951 1.91733 1.19817 1.96C1.11817 2.00133 1.02084 2.022 0.906172 2.022ZM1.77567 0.638L1.61967 0.614V0.514H1.88567C1.93367 0.514 1.98101 0.512 2.02767 0.508C2.09967 0.502667 2.16767 0.5 2.23167 0.5C2.42501 0.501333 2.56167 0.537333 2.64167 0.608C2.72167 0.678667 2.76167 0.785333 2.76167 0.928C2.76167 1.03467 2.73701 1.12733 2.68767 1.206C2.63834 1.28467 2.56967 1.34467 2.48167 1.386C2.39501 1.42733 2.29501 1.448 2.18167 1.448C2.14301 1.448 2.10367 1.44733 2.06367 1.446C2.02367 1.44333 1.99901 1.44133 1.98967 1.44V1.88L2.26367 1.902V2H1.60967V1.902L1.77567 1.882V0.638ZM1.98967 1.33C2.02701 1.33667 2.09101 1.34 2.18167 1.34C2.28701 1.34 2.37234 1.308 2.43767 1.244C2.50434 1.18 2.53767 1.07533 2.53767 0.93C2.53767 0.815333 2.50901 0.733333 2.45167 0.684C2.39434 0.633333 2.30501 0.608 2.18367 0.608C2.14101 0.608 2.09567 0.610667 2.04767 0.616C2.01834 0.618667 1.99901 0.62 1.98967 0.62V1.33ZM2.9045 1.902L3.0705 1.882V0.638L2.9145 0.612V0.514H3.1765C3.21383 0.514 3.2645 0.511333 3.3285 0.506C3.39517 0.500667 3.44717 0.498 3.4845 0.498C3.6805 0.498 3.81983 0.53 3.9025 0.594C3.9865 0.656667 4.0285 0.756 4.0285 0.892C4.0285 0.986667 4.00183 1.07333 3.9485 1.152C3.8965 1.23067 3.8245 1.284 3.7325 1.312C3.77517 1.33467 3.8145 1.374 3.8505 1.43C3.88783 1.48467 3.93317 1.56133 3.9865 1.66C4.02783 1.73467 4.05917 1.78933 4.0805 1.824C4.10317 1.85867 4.1245 1.878 4.1445 1.882L4.2225 1.902V2H3.9465C3.92517 2 3.90117 1.97733 3.8745 1.932C3.84783 1.88533 3.8125 1.814 3.7685 1.718C3.7205 1.61267 3.6785 1.52933 3.6425 1.468C3.60783 1.40533 3.57317 1.36533 3.5385 1.348C3.39583 1.348 3.31117 1.34733 3.2845 1.346V1.882L3.4825 1.902V2H2.9045V1.902ZM3.5225 1.24C3.60783 1.24 3.67517 1.212 3.7245 1.156C3.77383 1.1 3.7985 1.01667 3.7985 0.906C3.7985 0.808667 3.77317 0.734667 3.7225 0.684C3.67317 0.632 3.58717 0.606 3.4645 0.606C3.42183 0.606 3.37917 0.608667 3.3365 0.614C3.30983 0.616667 3.2925 0.618 3.2845 0.618V1.238C3.3045 1.23933 3.34583 1.24 3.4085 1.24H3.5225ZM5.8387 2.396C5.7787 2.396 5.72204 2.386 5.6687 2.366C5.61537 2.346 5.5667 2.32133 5.5227 2.292C5.48004 2.264 5.4287 2.22667 5.3687 2.18C5.30337 2.12933 5.24804 2.09 5.2027 2.062C5.1587 2.034 5.11337 2.01533 5.0667 2.006C5.01737 2.01667 4.96937 2.022 4.9227 2.022C4.78804 2.022 4.67337 1.99067 4.5787 1.928C4.48404 1.86533 4.4127 1.77733 4.3647 1.664C4.3167 1.54933 4.2927 1.41667 4.2927 1.266C4.2927 1.11267 4.32137 0.978 4.3787 0.862C4.43737 0.746 4.51737 0.656667 4.6187 0.594C4.72004 0.53 4.8347 0.498 4.9627 0.498C5.1707 0.498 5.32937 0.564 5.4387 0.696C5.54804 0.826667 5.6027 1.008 5.6027 1.24C5.6027 1.412 5.5667 1.56067 5.4947 1.686C5.42404 1.81133 5.32804 1.90267 5.2067 1.96C5.2667 1.96533 5.3247 1.98 5.3807 2.004C5.4367 2.028 5.5027 2.062 5.5787 2.106C5.6627 2.15133 5.7307 2.18467 5.7827 2.206C5.8347 2.22733 5.88804 2.238 5.9427 2.238C5.96537 2.238 5.98604 2.23667 6.0047 2.234L6.0287 2.32C6.0047 2.34533 5.97604 2.364 5.9427 2.376C5.90937 2.38933 5.8747 2.396 5.8387 2.396ZM4.9447 1.916C5.07404 1.916 5.17604 1.85867 5.2507 1.744C5.32537 1.628 5.3627 1.46067 5.3627 1.242C5.3627 1.04067 5.3267 0.884 5.2547 0.772C5.1827 0.658667 5.08137 0.602 4.9507 0.602C4.82137 0.602 4.7187 0.658 4.6427 0.77C4.56804 0.882 4.5307 1.04733 4.5307 1.266C4.5307 1.466 4.5667 1.62467 4.6387 1.742C4.71204 1.858 4.81404 1.916 4.9447 1.916Z" transform="translate(131.685 27) rotate(13.1909)" fill="url(#paint9_radial)"/>
</g>
<defs>
<filter id="filter0_i" x="52.9647" y="86.964" width="43.507" height="28.432" filterUnits="userSpaceOnUse" color-interpolation-filters="sRGB">
<feFlood flood-opacity="0" result="BackgroundImageFix"/>
<feBlend mode="normal" in="SourceGraphic" in2="BackgroundImageFix" result="shape"/>
<feColorMatrix in="SourceAlpha" type="matrix" values="0 0 0 0 0 0 0 0 0 0 0 0 0 0 0 0 0 0 255 0" result="hardAlpha"/>
<feOffset dx="2" dy="1"/>
<feGaussianBlur stdDeviation="0.5"/>
<feComposite in2="hardAlpha" operator="arithmetic" k2="-1" k3="1"/>
<feColorMatrix type="matrix" values="0 0 0 0 0 0 0 0 0 0 0 0 0 0 0 0 0 0 0.25 0"/>
<feBlend mode="normal" in2="shape" result="effect1_innerShadow"/>
</filter>
<filter id="filter1_i" x="131.682" y="27.6826" width="6.3428" height="3.99005" filterUnits="userSpaceOnUse" color-interpolation-filters="sRGB">
<feFlood flood-opacity="0" result="BackgroundImageFix"/>
<feBlend mode="normal" in="SourceGraphic" in2="BackgroundImageFix" result="shape"/>
<feColorMatrix in="SourceAlpha" type="matrix" values="0 0 0 0 0 0 0 0 0 0 0 0 0 0 0 0 0 0 255 0" result="hardAlpha"/>
<feOffset dx="2" dy="1"/>
<feGaussianBlur stdDeviation="0.5"/>
<feComposite in2="hardAlpha" operator="arithmetic" k2="-1" k3="1"/>
<feColorMatrix type="matrix" values="0 0 0 0 0 0 0 0 0 0 0 0 0 0 0 0 0 0 0.25 0"/>
<feBlend mode="normal" in2="shape" result="effect1_innerShadow"/>
</filter>
<radialGradient id="paint0_radial" cx="0.5" cy="0.5" r="0.5" gradientUnits="userSpaceOnUse" gradientTransform="translate(114.471 -2.95786) scale(130.729 30.6017) rotate(90)">
<stop offset="0.801105" stop-color="#E0DFDF"/>
<stop offset="0.977901" stop-color="#5C5A5A"/>
<stop offset="1" stop-color="#E1DFDF"/>
</radialGradient>
<linearGradient id="paint1_linear" x2="1" gradientUnits="userSpaceOnUse" gradientTransform="matrix(11.9431 -0.443503 0.291168 7.88224 91.4259 -2.46396)">
<stop offset="0.966851" stop-color="white" stop-opacity="0"/>
<stop offset="0.966951" stop-color="#B9B8B8" stop-opacity="0.75"/>
<stop offset="0.9999" stop-color="white" stop-opacity="0.61"/>
<stop offset="1" stop-color="#DEDCDC"/>
</linearGradient>
<linearGradient id="paint2_linear" x2="1" gradientUnits="userSpaceOnUse" gradientTransform="translate(-10.6161 -2.50874) scale(102.844 99.4836)">
<stop offset="0.40884" stop-color="#E9E7E7"/>
<stop offset="0.712707" stop-color="#EAE8E8"/>
<stop offset="0.883978" stop-color="#B6B6B6"/>
<stop offset="0.955733" stop-color="#DFDDDD"/>
</linearGradient>
<linearGradient id="paint3_linear" x2="1" gradientUnits="userSpaceOnUse" gradientTransform="matrix(0.110585 8.42655 -8.10849 0.106972 49.3939 85.9861)">
<stop offset="0.00332045" stop-color="white" stop-opacity="0"/>
<stop offset="0.353591" stop-color="white" stop-opacity="0.351438"/>
<stop offset="0.657459" stop-color="white" stop-opacity="0.656317"/>
<stop offset="1" stop-color="white"/>
</linearGradient>
<linearGradient id="paint4_linear" x2="1" gradientUnits="userSpaceOnUse" gradientTransform="translate(90.9005) scale(90.9005 94.4661) rotate(90)">
<stop stop-color="white" stop-opacity="0"/>
<stop offset="1" stop-color="white"/>
</linearGradient>
<linearGradient id="paint5_linear" x2="1" gradientUnits="userSpaceOnUse" gradientTransform="translate(37.8199 -83.3302) scale(45.782 204.871)">
<stop offset="0.508287" stop-color="#E9E7E7"/>
<stop offset="0.740331" stop-color="#CFCECE"/>
<stop offset="0.951632" stop-color="#B3B3B3"/>
<stop offset="1" stop-color="#DEDCDC"/>
</linearGradient>
<linearGradient id="paint6_linear" x2="1" gradientUnits="userSpaceOnUse" gradientTransform="matrix(91.1216 2.43926 -17.7011 664.734 12.3893 -334.806)">
<stop offset="0.395984" stop-color="#E8E6E6"/>
<stop offset="0.726746" stop-color="#E6E5E5" stop-opacity="0.303798"/>
<stop offset="0.88822" stop-color="#676767" stop-opacity="0.37"/>
<stop offset="0.937704" stop-color="#EDEAEA" stop-opacity="0.620253"/>
</linearGradient>
<linearGradient id="paint7_linear" x2="1" gradientUnits="userSpaceOnUse" gradientTransform="matrix(49.5419 0.66526 -4.84271 362.538 41.5683 -180.16)">
<stop offset="0.364464" stop-color="#E8E6E6"/>
<stop offset="0.749173" stop-color="#E6E5E5" stop-opacity="0.303798"/>
<stop offset="0.955801" stop-color="#707070" stop-opacity="0.37"/>
<stop offset="1" stop-color="#EDEAEA" stop-opacity="0.620253"/>
</linearGradient>
<radialGradient id="paint8_radial" cx="0.5" cy="0.5" r="0.5" gradientUnits="userSpaceOnUse" gradientTransform="translate(61.485) scale(61.485 65.1949) rotate(90)">
<stop offset="0.149171" stop-color="#A4A4A4" stop-opacity="0.46"/>
<stop offset="0.40884" stop-color="#9D9D9D" stop-opacity="0.32"/>
<stop offset="0.679558" stop-color="#606060" stop-opacity="0.3"/>
<stop offset="1" stop-color="#C4C4C4" stop-opacity="0.59"/>
</radialGradient>
<radialGradient id="paint9_radial" cx="0.5" cy="0.5" r="0.5" gradientUnits="userSpaceOnUse" gradientTransform="translate(6) scale(6 3) rotate(90)">
<stop offset="0.149171" stop-color="#A4A4A4" stop-opacity="0.46"/>
<stop offset="0.40884" stop-color="#9D9D9D" stop-opacity="0.32"/>
<stop offset="0.679558" stop-color="#606060" stop-opacity="0.3"/>
<stop offset="1" stop-color="#C4C4C4" stop-opacity="0.59"/>
</radialGradient>
</defs>
</svg>
